<svg width="62" height="19" viewBox="0 0 62 19" fill="none" xmlns="http://www.w3.org/2000/svg">
<path d="M12.24 12.096H3.888C3.952 13.392 4.272 14.352 4.848 14.976C5.44 15.584 6.312 15.888 7.464 15.888C8.792 15.888 10.024 15.456 11.16 14.592L12.024 16.656C11.448 17.12 10.736 17.496 9.888 17.784C9.056 18.056 8.208 18.192 7.344 18.192C5.36 18.192 3.8 17.632 2.664 16.512C1.528 15.392 0.96 13.856 0.96 11.904C0.96 10.672 1.208 9.576 1.704 8.616C2.2 7.656 2.896 6.912 3.792 6.384C4.688 5.84 5.704 5.568 6.84 5.568C8.504 5.568 9.816 6.112 10.776 7.2C11.752 8.272 12.24 9.752 12.24 11.64V12.096ZM6.912 7.728C6.112 7.728 5.456 7.968 4.944 8.448C4.448 8.912 4.128 9.592 3.984 10.488H9.624C9.528 9.576 9.248 8.888 8.784 8.424C8.336 7.96 7.712 7.728 6.912 7.728ZM25.5084 9.168C26.5004 9.456 27.2604 9.96 27.7884 10.68C28.3324 11.4 28.6044 12.288 28.6044 13.344C28.6044 14.8 28.0844 15.944 27.0444 16.776C26.0204 17.592 24.5884 18 22.7484 18H14.9964V0.912H22.5084C24.2684 0.912 25.6524 1.312 26.6604 2.112C27.6684 2.896 28.1724 3.984 28.1724 5.376C28.1724 6.272 27.9324 7.056 27.4524 7.728C26.9884 8.384 26.3404 8.864 25.5084 9.168ZM18.0204 8.112H22.0044C24.1484 8.112 25.2204 7.312 25.2204 5.712C25.2204 4.912 24.9564 4.312 24.4284 3.912C23.9004 3.512 23.0924 3.312 22.0044 3.312H18.0204V8.112ZM22.4124 15.6C23.5324 15.6 24.3484 15.4 24.8604 15C25.3884 14.6 25.6524 13.968 25.6524 13.104C25.6524 12.224 25.3884 11.576 24.8604 11.16C24.3484 10.744 23.5324 10.536 22.4124 10.536H18.0204V15.6H22.4124ZM31.3508 5.88H34.3268V18H31.3508V5.88ZM34.4948 0.383999V3.336H31.1588V0.383999H34.4948ZM45.8886 18L40.5846 12.408V18H37.6086V0.335999H40.5846V11.232L45.5766 5.904H49.2006L43.7526 11.688L49.6326 18H45.8886ZM61.2713 12.096H52.9193C52.9833 13.392 53.3033 14.352 53.8793 14.976C54.4713 15.584 55.3433 15.888 56.4953 15.888C57.8233 15.888 59.0553 15.456 60.1913 14.592L61.0553 16.656C60.4793 17.12 59.7673 17.496 58.9193 17.784C58.0873 18.056 57.2393 18.192 56.3753 18.192C54.3913 18.192 52.8313 17.632 51.6953 16.512C50.5593 15.392 49.9913 13.856 49.9913 11.904C49.9913 10.672 50.2393 9.576 50.7353 8.616C51.2313 7.656 51.9273 6.912 52.8233 6.384C53.7193 5.84 54.7353 5.568 55.8713 5.568C57.5353 5.568 58.8473 6.112 59.8073 7.2C60.7833 8.272 61.2713 9.752 61.2713 11.64V12.096ZM55.9433 7.728C55.1433 7.728 54.4873 7.968 53.9753 8.448C53.4793 8.912 53.1593 9.592 53.0153 10.488H58.6553C58.5593 9.576 58.2793 8.888 57.8153 8.424C57.3673 7.96 56.7433 7.728 55.9433 7.728Z" fill="white"/>
</svg>
